<svg fill="#000000" xmlns="http://www.w3.org/2000/svg"  viewBox="0 0 50 50" width="500px" height="500px"><path d="M 37 13 L 29 28 L 37 28 L 37 38 L 23.699219 38 L 20 45 L 12 45 L 12 37 L 19.898438 22 L 12 22 L 12 12 L 25.199219 12 L 28.898438 5 L 37 5 C 37 7.667969 37 10.332031 37 13 Z M 30.105469 7 L 26.40625 14 L 14 14 L 14 20 L 21.996094 20 L 22.648438 21.078125 L 14 37.492188 L 14 43 L 18.796875 43 L 22.496094 36 L 35 36 L 35 30 L 26.902344 30 L 26.246094 28.910156 L 35 12.5 L 35 7 C 33.367188 7 31.738281 7 30.105469 7 Z"/></svg>