<?xml version="1.0" encoding="UTF-8" standalone="no"?>
<!-- Created with Inkscape (http://www.inkscape.org/) -->

<svg
   width="475.14258"
   height="158.91992"
   viewBox="0 0 475.14258 158.91992"
   version="1.1"
   id="svg5"
   inkscape:export-filename="imdblogo-new3.svg"
   inkscape:export-xdpi="96"
   inkscape:export-ydpi="96"
   xmlns:inkscape="http://www.inkscape.org/namespaces/inkscape"
   xmlns:sodipodi="http://sodipodi.sourceforge.net/DTD/sodipodi-0.dtd"
   xmlns="http://www.w3.org/2000/svg"
   xmlns:svg="http://www.w3.org/2000/svg">
  <sodipodi:namedview
     id="namedview7"
     pagecolor="#ffffff"
     bordercolor="#999999"
     borderopacity="1"
     inkscape:showpageshadow="0"
     inkscape:pageopacity="0"
     inkscape:pagecheckerboard="0"
     inkscape:deskcolor="#d1d1d1"
     inkscape:document-units="px"
     showgrid="false" />
  <defs
     id="defs2" />
  <g
     inkscape:label="Layer 1"
     inkscape:groupmode="layer"
     id="layer1"
     transform="translate(-20.347656,-100.44922)">
    <path
       id="path273"
       style="font-size:210.588px;line-height:1.25;font-family:'Helvetica Neue';-inkscape-font-specification:'Helvetica Neue';stroke-width:5.26472"
       d="m 20.347656,100.44922 v 156.50781 h 19.21875 V 100.44922 Z m 55.994141,0 V 256.95703 H 94.548828 V 126.75391 h 0.40625 l 45.115232,130.20312 h 16.38672 l 45.11719,-130.20312 h 0.4043 V 256.95703 H 220.1875 V 100.44922 H 193.88672 L 148.16211,231.96875 102.64258,100.44922 Z m 173.810543,0 v 156.50781 h 49.56641 c 12.00399,0 22.38929,-1.82519 31.15625,-5.47851 8.76696,-3.65333 15.98364,-8.91495 21.64844,-15.78321 5.66481,-7.01438 9.84544,-15.56331 12.54297,-25.64648 2.69753,-10.22931 4.04687,-21.9203 4.04687,-35.07227 0,-25.13488 -6.00187,-43.84006 -18.00586,-56.11523 -12.00399,-12.27517 -29.13408,-18.41211 -51.38867,-18.41211 z m 146.20313,0 v 156.50781 h 17.19726 v -15.125 h 0.4043 c 1.88827,3.36106 4.18138,6.2107 6.87891,8.54883 2.8324,2.192 5.80018,3.94653 8.90234,5.26172 3.10215,1.3152 6.20449,2.26507 9.30664,2.84961 3.23704,0.58453 6.13658,0.87695 8.69922,0.87695 7.95771,0 14.90334,-1.53472 20.83789,-4.60352 6.06944,-3.06879 11.06125,-7.23335 14.97266,-12.49414 4.04629,-5.40691 7.01212,-11.69104 8.90039,-18.85156 2.02314,-7.16052 3.03515,-14.75957 3.03515,-22.79687 0,-8.03732 -1.01201,-15.63636 -3.03515,-22.79688 -2.02315,-7.16052 -5.05723,-13.44465 -9.10352,-18.85156 -3.91141,-5.55306 -8.90127,-9.93547 -14.9707,-13.15039 -5.93455,-3.21493 -12.94844,-4.82227 -21.04102,-4.82227 -7.28332,0 -13.95987,1.46015 -20.02929,4.38282 -6.06944,2.77652 -10.52111,7.30612 -13.35352,13.58984 h -0.4043 v -58.52539 z m -126.98242,17.53516 h 32.36914 c 8.90184,-1e-5 16.3876,1.38948 22.45703,4.16601 6.06943,2.6304 10.99299,6.57516 14.76953,11.83594 3.91141,5.11465 6.6764,11.39878 8.29492,18.85156 1.75339,7.30665 2.62891,15.63577 2.62891,24.98828 0,9.64478 -0.94376,17.90128 -2.83203,24.76953 -1.75339,6.72212 -4.04651,12.34879 -6.87891,16.87891 -2.8324,4.53012 -6.06927,8.10984 -9.71094,10.74023 -3.50677,2.63041 -7.08099,4.67735 -10.72265,6.13868 -3.64167,1.31519 -7.08133,2.19051 -10.31836,2.6289 -3.23703,0.29227 -5.93378,0.43945 -8.0918,0.43946 h -31.96484 z m 175.53906,39.45703 c 5.52992,0 10.31699,1.16968 14.36328,3.50781 4.18117,2.33812 7.55454,5.47824 10.11719,9.42383 2.69753,3.94559 4.65329,8.47714 5.86719,13.59179 1.34875,4.96852 2.02148,10.08297 2.02148,15.34375 0,5.55306 -0.53818,10.95992 -1.61719,16.22071 -1.079,5.26078 -2.83394,9.93757 -5.26172,14.02929 -2.42777,4.09173 -5.66464,7.37902 -9.71093,9.86329 -3.91141,2.48426 -8.83302,3.72656 -14.76758,3.72656 -5.93456,0 -10.99267,-1.16968 -15.17383,-3.50782 -4.18117,-2.48426 -7.62084,-5.69894 -10.31836,-9.64453 -2.56265,-3.94559 -4.45018,-8.47519 -5.66406,-13.58984 -1.21389,-5.26079 -1.82227,-10.66765 -1.82227,-16.2207 0,-5.26079 0.54013,-10.4498 1.61914,-15.56446 1.21389,-5.11465 3.10142,-9.64426 5.66407,-13.58984 2.56265,-4.09173 5.86777,-7.37902 9.91406,-9.86328 4.04629,-2.48427 8.96985,-3.72656 14.76953,-3.72656 z"
       inkscape:export-filename="imdblogo-new2.svg"
       inkscape:export-xdpi="96"
       inkscape:export-ydpi="96" />
  </g>
</svg>
